<mxfile host="app.diagrams.net" agent="Mozilla/5.0 (Windows NT 10.0; Win64; x64) AppleWebKit/537.36 (KHTML, like Gecko) Chrome/129.0.0.0 Safari/537.36 Edg/129.0.0.0" version="24.7.17">
  <diagram name="PÃ¡gina-1" id="4Bow1-Seuu_lp2tEzYjS">
    <mxGraphModel dx="3565" dy="1893" grid="1" gridSize="10" guides="1" tooltips="1" connect="1" arrows="1" fold="1" page="1" pageScale="1" pageWidth="3300" pageHeight="2339" math="0" shadow="0">
      <root>
        <mxCell id="0" />
        <mxCell id="1" parent="0" />
        <mxCell id="VRJ6IOVxPH5nIhdkej40-35" value="" style="group" vertex="1" connectable="0" parent="1">
          <mxGeometry x="100" y="230" width="3000" height="1090" as="geometry" />
        </mxCell>
        <mxCell id="VRJ6IOVxPH5nIhdkej40-23" style="edgeStyle=orthogonalEdgeStyle;rounded=0;orthogonalLoop=1;jettySize=auto;html=1;entryX=0.5;entryY=0;entryDx=0;entryDy=0;endArrow=classic;endFill=1;strokeColor=default;startArrow=classic;startFill=1;" edge="1" parent="VRJ6IOVxPH5nIhdkej40-35" source="VRJ6IOVxPH5nIhdkej40-1" target="VRJ6IOVxPH5nIhdkej40-22">
          <mxGeometry relative="1" as="geometry" />
        </mxCell>
        <mxCell id="VRJ6IOVxPH5nIhdkej40-1" value="&lt;font style=&quot;font-size: 30px;&quot;&gt;CRM&lt;/font&gt;" style="rounded=1;whiteSpace=wrap;html=1;" vertex="1" parent="VRJ6IOVxPH5nIhdkej40-35">
          <mxGeometry x="2592.391304347826" y="166.0952380952381" width="407.6086956521738" height="134.95238095238093" as="geometry" />
        </mxCell>
        <mxCell id="VRJ6IOVxPH5nIhdkej40-4" style="edgeStyle=orthogonalEdgeStyle;rounded=0;orthogonalLoop=1;jettySize=auto;html=1;entryX=1;entryY=0.5;entryDx=0;entryDy=0;" edge="1" parent="VRJ6IOVxPH5nIhdkej40-35" source="VRJ6IOVxPH5nIhdkej40-2" target="VRJ6IOVxPH5nIhdkej40-1">
          <mxGeometry relative="1" as="geometry" />
        </mxCell>
        <mxCell id="VRJ6IOVxPH5nIhdkej40-11" style="edgeStyle=orthogonalEdgeStyle;rounded=0;orthogonalLoop=1;jettySize=auto;html=1;entryX=0;entryY=0.5;entryDx=0;entryDy=0;" edge="1" parent="VRJ6IOVxPH5nIhdkej40-35" source="VRJ6IOVxPH5nIhdkej40-2" target="VRJ6IOVxPH5nIhdkej40-7">
          <mxGeometry relative="1" as="geometry">
            <Array as="points">
              <mxPoint x="586.9565217391303" y="67.47619047619047" />
              <mxPoint x="586.9565217391303" y="647.7714285714286" />
            </Array>
          </mxGeometry>
        </mxCell>
        <mxCell id="VRJ6IOVxPH5nIhdkej40-2" value="&lt;font style=&quot;font-size: 30px;&quot;&gt;Host PMS/POS&lt;/font&gt;" style="rounded=1;whiteSpace=wrap;html=1;" vertex="1" parent="VRJ6IOVxPH5nIhdkej40-35">
          <mxGeometry x="847.8260869565216" width="407.6086956521738" height="134.95238095238093" as="geometry" />
        </mxCell>
        <mxCell id="VRJ6IOVxPH5nIhdkej40-5" style="edgeStyle=orthogonalEdgeStyle;rounded=0;orthogonalLoop=1;jettySize=auto;html=1;" edge="1" parent="VRJ6IOVxPH5nIhdkej40-35" source="VRJ6IOVxPH5nIhdkej40-15" target="VRJ6IOVxPH5nIhdkej40-1">
          <mxGeometry relative="1" as="geometry" />
        </mxCell>
        <mxCell id="VRJ6IOVxPH5nIhdkej40-10" style="edgeStyle=orthogonalEdgeStyle;rounded=0;orthogonalLoop=1;jettySize=auto;html=1;entryX=0.5;entryY=0;entryDx=0;entryDy=0;" edge="1" parent="VRJ6IOVxPH5nIhdkej40-35" source="VRJ6IOVxPH5nIhdkej40-3" target="VRJ6IOVxPH5nIhdkej40-7">
          <mxGeometry relative="1" as="geometry" />
        </mxCell>
        <mxCell id="VRJ6IOVxPH5nIhdkej40-3" value="&lt;font style=&quot;font-size: 30px;&quot;&gt;Golfmanager PMS/POS&lt;/font&gt;" style="rounded=1;whiteSpace=wrap;html=1;" vertex="1" parent="VRJ6IOVxPH5nIhdkej40-35">
          <mxGeometry x="847.8260869565216" y="166.0952380952381" width="407.6086956521738" height="134.95238095238093" as="geometry" />
        </mxCell>
        <mxCell id="VRJ6IOVxPH5nIhdkej40-7" value="&lt;font style=&quot;font-size: 30px;&quot;&gt;Triparound&lt;/font&gt;" style="rounded=1;whiteSpace=wrap;html=1;" vertex="1" parent="VRJ6IOVxPH5nIhdkej40-35">
          <mxGeometry x="847.8260869565216" y="581.3333333333334" width="407.6086956521738" height="134.95238095238093" as="geometry" />
        </mxCell>
        <mxCell id="VRJ6IOVxPH5nIhdkej40-16" value="" style="edgeStyle=orthogonalEdgeStyle;rounded=0;orthogonalLoop=1;jettySize=auto;html=1;" edge="1" parent="VRJ6IOVxPH5nIhdkej40-35" source="VRJ6IOVxPH5nIhdkej40-3" target="VRJ6IOVxPH5nIhdkej40-15">
          <mxGeometry relative="1" as="geometry">
            <mxPoint x="1255.4347826086953" y="233.57142857142856" as="sourcePoint" />
            <mxPoint x="2592.391304347826" y="233.57142857142856" as="targetPoint" />
          </mxGeometry>
        </mxCell>
        <mxCell id="VRJ6IOVxPH5nIhdkej40-15" value="Transactions&lt;div&gt;Deduct Points&lt;/div&gt;" style="rounded=0;whiteSpace=wrap;html=1;fillColor=#f8cecc;strokeColor=#b85450;" vertex="1" parent="VRJ6IOVxPH5nIhdkej40-35">
          <mxGeometry x="1858.6956521739128" y="202.42857142857142" width="195.65217391304347" height="62.28571428571428" as="geometry" />
        </mxCell>
        <mxCell id="VRJ6IOVxPH5nIhdkej40-19" value="Transactions&lt;div&gt;Deduct Points&lt;/div&gt;" style="rounded=0;whiteSpace=wrap;html=1;fillColor=#f8cecc;strokeColor=#b85450;" vertex="1" parent="VRJ6IOVxPH5nIhdkej40-35">
          <mxGeometry x="2103.2608695652166" y="36.333333333333336" width="195.65217391304347" height="62.28571428571428" as="geometry" />
        </mxCell>
        <mxCell id="VRJ6IOVxPH5nIhdkej40-20" value="Availability" style="rounded=0;whiteSpace=wrap;html=1;fillColor=#d5e8d4;strokeColor=#82b366;" vertex="1" parent="VRJ6IOVxPH5nIhdkej40-35">
          <mxGeometry x="489.1304347826087" y="332.1904761904762" width="195.65217391304347" height="62.28571428571428" as="geometry" />
        </mxCell>
        <mxCell id="VRJ6IOVxPH5nIhdkej40-21" value="Availability" style="rounded=0;whiteSpace=wrap;html=1;fillColor=#d5e8d4;strokeColor=#82b366;" vertex="1" parent="VRJ6IOVxPH5nIhdkej40-35">
          <mxGeometry x="953.8043478260868" y="384.09523809523813" width="195.65217391304347" height="62.28571428571428" as="geometry" />
        </mxCell>
        <mxCell id="VRJ6IOVxPH5nIhdkej40-26" style="edgeStyle=orthogonalEdgeStyle;rounded=0;orthogonalLoop=1;jettySize=auto;html=1;entryX=1;entryY=0.5;entryDx=0;entryDy=0;" edge="1" parent="VRJ6IOVxPH5nIhdkej40-35" source="VRJ6IOVxPH5nIhdkej40-22" target="VRJ6IOVxPH5nIhdkej40-7">
          <mxGeometry relative="1" as="geometry">
            <Array as="points">
              <mxPoint x="2310" y="649" />
              <mxPoint x="2310" y="649" />
            </Array>
          </mxGeometry>
        </mxCell>
        <mxCell id="VRJ6IOVxPH5nIhdkej40-22" value="&lt;font style=&quot;font-size: 30px;&quot;&gt;Client&lt;/font&gt;" style="ellipse;whiteSpace=wrap;html=1;aspect=fixed;fillColor=#e3c800;fontColor=#000000;strokeColor=#B09500;" vertex="1" parent="VRJ6IOVxPH5nIhdkej40-35">
          <mxGeometry x="2636.48" y="562.95" width="319.43" height="319.43" as="geometry" />
        </mxCell>
        <mxCell id="VRJ6IOVxPH5nIhdkej40-25" value="Points available&lt;div&gt;Customer data booking&lt;/div&gt;" style="rounded=0;whiteSpace=wrap;html=1;fillColor=#dae8fc;strokeColor=#6c8ebf;" vertex="1" parent="VRJ6IOVxPH5nIhdkej40-35">
          <mxGeometry x="2698.3695652173906" y="404.85714285714283" width="195.65217391304347" height="62.28571428571428" as="geometry" />
        </mxCell>
        <mxCell id="VRJ6IOVxPH5nIhdkej40-27" value="Booking" style="rounded=0;whiteSpace=wrap;html=1;fillColor=#fff2cc;strokeColor=#d6b656;" vertex="1" parent="VRJ6IOVxPH5nIhdkej40-35">
          <mxGeometry x="1858.6956521739128" y="617.6666666666666" width="195.65217391304347" height="62.28571428571428" as="geometry" />
        </mxCell>
        <mxCell id="VRJ6IOVxPH5nIhdkej40-30" style="edgeStyle=orthogonalEdgeStyle;rounded=0;orthogonalLoop=1;jettySize=auto;html=1;entryX=0.5;entryY=1;entryDx=0;entryDy=0;" edge="1" parent="VRJ6IOVxPH5nIhdkej40-35" source="VRJ6IOVxPH5nIhdkej40-29" target="VRJ6IOVxPH5nIhdkej40-7">
          <mxGeometry relative="1" as="geometry" />
        </mxCell>
        <mxCell id="VRJ6IOVxPH5nIhdkej40-29" value="&lt;span style=&quot;font-size: 30px;&quot;&gt;3rd Party Suppliers&lt;/span&gt;" style="rounded=1;whiteSpace=wrap;html=1;" vertex="1" parent="VRJ6IOVxPH5nIhdkej40-35">
          <mxGeometry x="847.8260869565216" y="882.3809523809524" width="407.6086956521738" height="134.95238095238093" as="geometry" />
        </mxCell>
        <mxCell id="VRJ6IOVxPH5nIhdkej40-31" value="Automatic email communication" style="rounded=0;whiteSpace=wrap;html=1;fillColor=#d5e8d4;strokeColor=#82b366;" vertex="1" parent="VRJ6IOVxPH5nIhdkej40-35">
          <mxGeometry x="953.8043478260868" y="768.1904761904763" width="195.65217391304347" height="62.28571428571428" as="geometry" />
        </mxCell>
        <mxCell id="VRJ6IOVxPH5nIhdkej40-33" style="edgeStyle=orthogonalEdgeStyle;rounded=0;orthogonalLoop=1;jettySize=auto;html=1;entryX=0;entryY=1;entryDx=0;entryDy=0;" edge="1" parent="VRJ6IOVxPH5nIhdkej40-35" source="VRJ6IOVxPH5nIhdkej40-32" target="VRJ6IOVxPH5nIhdkej40-7">
          <mxGeometry relative="1" as="geometry">
            <Array as="points">
              <mxPoint x="685" y="856" />
              <mxPoint x="685" y="716" />
            </Array>
          </mxGeometry>
        </mxCell>
        <mxCell id="VRJ6IOVxPH5nIhdkej40-32" value="&lt;font style=&quot;font-size: 20px;&quot;&gt;Concierge Team&lt;/font&gt;" style="rhombus;whiteSpace=wrap;html=1;fillColor=#647687;fontColor=#ffffff;strokeColor=#314354;rounded=1;arcSize=50;" vertex="1" parent="VRJ6IOVxPH5nIhdkej40-35">
          <mxGeometry x="50" y="716.2900000000001" width="282.83" height="280.29" as="geometry" />
        </mxCell>
        <mxCell id="VRJ6IOVxPH5nIhdkej40-34" value="Back office Booking" style="rounded=0;whiteSpace=wrap;html=1;fillColor=#fff2cc;strokeColor=#d6b656;" vertex="1" parent="VRJ6IOVxPH5nIhdkej40-35">
          <mxGeometry x="579.9965217391302" y="820.0942857142857" width="195.65217391304347" height="62.28571428571428" as="geometry" />
        </mxCell>
        <mxCell id="VRJ6IOVxPH5nIhdkej40-60" value="API&lt;div&gt;Integration&lt;/div&gt;" style="rhombus;whiteSpace=wrap;html=1;fillColor=#e51400;fontColor=#ffffff;strokeColor=#B20000;" vertex="1" parent="VRJ6IOVxPH5nIhdkej40-35">
          <mxGeometry x="546.96" y="430" width="80" height="80" as="geometry" />
        </mxCell>
        <mxCell id="VRJ6IOVxPH5nIhdkej40-61" value="API&lt;div&gt;Integration&lt;/div&gt;" style="rhombus;whiteSpace=wrap;html=1;fillColor=#e51400;fontColor=#ffffff;strokeColor=#B20000;" vertex="1" parent="VRJ6IOVxPH5nIhdkej40-35">
          <mxGeometry x="1011.6300000000001" y="467.14" width="80" height="80" as="geometry" />
        </mxCell>
        <mxCell id="VRJ6IOVxPH5nIhdkej40-63" value="API&lt;div&gt;Integration&lt;/div&gt;" style="rhombus;whiteSpace=wrap;html=1;fillColor=#e51400;fontColor=#ffffff;strokeColor=#B20000;" vertex="1" parent="VRJ6IOVxPH5nIhdkej40-35">
          <mxGeometry x="1610" y="193.57" width="80" height="80" as="geometry" />
        </mxCell>
        <mxCell id="VRJ6IOVxPH5nIhdkej40-64" value="API&lt;div&gt;Integration&lt;/div&gt;" style="rhombus;whiteSpace=wrap;html=1;fillColor=#e51400;fontColor=#ffffff;strokeColor=#B20000;" vertex="1" parent="VRJ6IOVxPH5nIhdkej40-35">
          <mxGeometry x="2480" y="27.480000000000018" width="80" height="80" as="geometry" />
        </mxCell>
        <mxCell id="VRJ6IOVxPH5nIhdkej40-37" value="" style="endArrow=none;html=1;rounded=0;" edge="1" parent="1" source="VRJ6IOVxPH5nIhdkej40-36">
          <mxGeometry width="50" height="50" relative="1" as="geometry">
            <mxPoint x="70" y="1360" as="sourcePoint" />
            <mxPoint x="3250" y="1360" as="targetPoint" />
          </mxGeometry>
        </mxCell>
        <mxCell id="VRJ6IOVxPH5nIhdkej40-38" value="" style="endArrow=none;html=1;rounded=0;" edge="1" parent="1" target="VRJ6IOVxPH5nIhdkej40-36">
          <mxGeometry width="50" height="50" relative="1" as="geometry">
            <mxPoint x="70" y="1360" as="sourcePoint" />
            <mxPoint x="3250" y="1360" as="targetPoint" />
          </mxGeometry>
        </mxCell>
        <mxCell id="VRJ6IOVxPH5nIhdkej40-36" value="&lt;font style=&quot;font-size: 25px;&quot;&gt;Funcionamento da App&lt;/font&gt;" style="shape=process;whiteSpace=wrap;html=1;backgroundOutline=1;fillColor=#008a00;fontColor=#ffffff;strokeColor=#005700;" vertex="1" parent="1">
          <mxGeometry x="1510" y="1280" width="340" height="160" as="geometry" />
        </mxCell>
        <mxCell id="VRJ6IOVxPH5nIhdkej40-41" value="" style="edgeStyle=orthogonalEdgeStyle;rounded=0;orthogonalLoop=1;jettySize=auto;html=1;" edge="1" parent="1" source="VRJ6IOVxPH5nIhdkej40-39" target="VRJ6IOVxPH5nIhdkej40-40">
          <mxGeometry relative="1" as="geometry" />
        </mxCell>
        <mxCell id="VRJ6IOVxPH5nIhdkej40-39" value="&lt;font style=&quot;font-size: 30px;&quot;&gt;&lt;b&gt;Login&lt;/b&gt;&lt;/font&gt;&lt;div&gt;&lt;font style=&quot;font-size: 30px;&quot;&gt;&lt;b&gt;&lt;br&gt;&lt;/b&gt;&lt;/font&gt;&lt;/div&gt;&lt;div style=&quot;font-size: 20px;&quot;&gt;&lt;div&gt;- Email address&amp;nbsp;&lt;/div&gt;&lt;div&gt;(Previously registered by the Concierge team)?&lt;/div&gt;&lt;/div&gt;&lt;div style=&quot;&quot;&gt;&lt;br&gt;&lt;/div&gt;&lt;div style=&quot;&quot;&gt;&lt;span style=&quot;font-size: 20px;&quot;&gt;Once the customer has been registered with Triparound by the concierge team, the Member receives an email to log in to the App to create a new Pw.&lt;/span&gt;&lt;br&gt;&lt;/div&gt;" style="rounded=1;whiteSpace=wrap;html=1;" vertex="1" parent="1">
          <mxGeometry x="105" y="1510" width="320" height="720" as="geometry" />
        </mxCell>
        <mxCell id="VRJ6IOVxPH5nIhdkej40-43" value="" style="edgeStyle=orthogonalEdgeStyle;rounded=0;orthogonalLoop=1;jettySize=auto;html=1;" edge="1" parent="1" source="VRJ6IOVxPH5nIhdkej40-40" target="VRJ6IOVxPH5nIhdkej40-42">
          <mxGeometry relative="1" as="geometry" />
        </mxCell>
        <mxCell id="VRJ6IOVxPH5nIhdkej40-40" value="&lt;div&gt;&lt;span style=&quot;background-color: initial; font-size: 30px;&quot;&gt;&lt;b&gt;Identifying Family Members&lt;/b&gt;&lt;/span&gt;&lt;/div&gt;&lt;div&gt;&lt;font style=&quot;font-size: 30px;&quot;&gt;&lt;b&gt;&lt;br&gt;&lt;/b&gt;&lt;/font&gt;&lt;/div&gt;&lt;div style=&quot;&quot;&gt;&lt;font style=&quot;font-size: 20px;&quot;&gt;-&amp;nbsp;Space to enter up to 3 family members&#39; emails to share account and points&lt;/font&gt;&lt;/div&gt;&lt;div style=&quot;&quot;&gt;&lt;font style=&quot;font-size: 20px;&quot;&gt;&lt;br&gt;&lt;/font&gt;&lt;/div&gt;&lt;div style=&quot;&quot;&gt;&lt;font style=&quot;font-size: 20px;&quot;&gt;- Once the emails have been entered and the âNext or Submitâ button has been clicked, they receive an email to create a pw, but then they don&#39;t go through this phase of identifying family members because they are a different type of member (Family).&lt;/font&gt;&lt;/div&gt;" style="rounded=1;whiteSpace=wrap;html=1;" vertex="1" parent="1">
          <mxGeometry x="505" y="1510" width="320" height="720" as="geometry" />
        </mxCell>
        <mxCell id="VRJ6IOVxPH5nIhdkej40-45" value="" style="edgeStyle=orthogonalEdgeStyle;rounded=0;orthogonalLoop=1;jettySize=auto;html=1;" edge="1" parent="1" source="VRJ6IOVxPH5nIhdkej40-42" target="VRJ6IOVxPH5nIhdkej40-44">
          <mxGeometry relative="1" as="geometry" />
        </mxCell>
        <mxCell id="VRJ6IOVxPH5nIhdkej40-42" value="&lt;div&gt;&lt;span style=&quot;font-size: 30px;&quot;&gt;&lt;b&gt;Profile&lt;/b&gt;&lt;/span&gt;&lt;/div&gt;&lt;div&gt;&lt;span style=&quot;font-size: 30px;&quot;&gt;&lt;b&gt;&lt;br&gt;&lt;/b&gt;&lt;/span&gt;&lt;/div&gt;&lt;div style=&quot;&quot;&gt;&lt;font style=&quot;font-size: 20px;&quot;&gt;- On this page, it is important to identify the customer&#39;s name, the address of their property, the points available, nationality, interests (...)&lt;/font&gt;&lt;/div&gt;" style="rounded=1;whiteSpace=wrap;html=1;" vertex="1" parent="1">
          <mxGeometry x="905" y="1510" width="320" height="720" as="geometry" />
        </mxCell>
        <mxCell id="VRJ6IOVxPH5nIhdkej40-47" value="" style="edgeStyle=orthogonalEdgeStyle;rounded=0;orthogonalLoop=1;jettySize=auto;html=1;" edge="1" parent="1" source="VRJ6IOVxPH5nIhdkej40-44" target="VRJ6IOVxPH5nIhdkej40-46">
          <mxGeometry relative="1" as="geometry" />
        </mxCell>
        <mxCell id="VRJ6IOVxPH5nIhdkej40-44" value="&lt;div&gt;&lt;span style=&quot;background-color: initial; font-size: 30px;&quot;&gt;&lt;b&gt;Experiences&lt;/b&gt;&lt;/span&gt;&lt;/div&gt;&lt;div&gt;&lt;span style=&quot;font-size: 30px;&quot;&gt;&lt;b&gt;&lt;br&gt;&lt;/b&gt;&lt;/span&gt;&lt;/div&gt;&lt;div style=&quot;&quot;&gt;&lt;font style=&quot;&quot;&gt;&lt;span style=&quot;font-size: 20px;&quot;&gt;-&amp;nbsp;&lt;span style=&quot;background-color: initial;&quot;&gt;Experiences page, where all upcoming events should appear, as well as the points required to take part.&lt;/span&gt;&lt;br&gt;&lt;/span&gt;&lt;/font&gt;&lt;/div&gt;&lt;div&gt;&lt;span style=&quot;font-size: 20px;&quot;&gt;&lt;br&gt;&lt;/span&gt;&lt;/div&gt;&lt;div&gt;&lt;span style=&quot;font-size: 20px;&quot;&gt;- You should also identify which experiences are exclusive experiences (e.g. Sunset Event for Vilamoura Members - 400 pts).&lt;/span&gt;&lt;/div&gt;&lt;div&gt;&lt;span style=&quot;font-size: 20px;&quot;&gt;&lt;br&gt;&lt;/span&gt;&lt;/div&gt;&lt;div&gt;&lt;span style=&quot;font-size: 20px;&quot;&gt;- All experiences should only be confirmed with points.&lt;/span&gt;&lt;/div&gt;" style="rounded=1;whiteSpace=wrap;html=1;" vertex="1" parent="1">
          <mxGeometry x="1305" y="1510" width="320" height="720" as="geometry" />
        </mxCell>
        <mxCell id="VRJ6IOVxPH5nIhdkej40-49" value="" style="edgeStyle=orthogonalEdgeStyle;rounded=0;orthogonalLoop=1;jettySize=auto;html=1;" edge="1" parent="1" source="VRJ6IOVxPH5nIhdkej40-46" target="VRJ6IOVxPH5nIhdkej40-48">
          <mxGeometry relative="1" as="geometry" />
        </mxCell>
        <mxCell id="VRJ6IOVxPH5nIhdkej40-46" value="&lt;div&gt;&lt;span style=&quot;font-size: 30px;&quot;&gt;&lt;b&gt;Services&lt;/b&gt;&lt;/span&gt;&lt;/div&gt;&lt;div&gt;&lt;span style=&quot;font-size: 30px;&quot;&gt;&lt;b&gt;&lt;br&gt;&lt;/b&gt;&lt;/span&gt;&lt;/div&gt;&lt;div style=&quot;&quot;&gt;&lt;font style=&quot;font-size: 20px;&quot;&gt;-&amp;nbsp;&lt;/font&gt;&lt;span style=&quot;background-color: initial; font-size: 20px;&quot;&gt;Services page, which should show all the services available in the region, as well as the associated price (e.g. Transfer - from 50 â¬).&lt;/span&gt;&lt;/div&gt;&lt;div&gt;&lt;span style=&quot;font-size: 20px;&quot;&gt;&lt;br&gt;&lt;/span&gt;&lt;/div&gt;&lt;div&gt;&lt;span style=&quot;font-size: 20px;&quot;&gt;- All services must be confirmed with payment.&lt;/span&gt;&lt;/div&gt;" style="rounded=1;whiteSpace=wrap;html=1;" vertex="1" parent="1">
          <mxGeometry x="1705" y="1510" width="320" height="720" as="geometry" />
        </mxCell>
        <mxCell id="VRJ6IOVxPH5nIhdkej40-51" value="" style="edgeStyle=orthogonalEdgeStyle;rounded=0;orthogonalLoop=1;jettySize=auto;html=1;" edge="1" parent="1" source="VRJ6IOVxPH5nIhdkej40-48" target="VRJ6IOVxPH5nIhdkej40-50">
          <mxGeometry relative="1" as="geometry" />
        </mxCell>
        <mxCell id="VRJ6IOVxPH5nIhdkej40-48" value="&lt;div&gt;&lt;span style=&quot;background-color: initial; font-size: 30px;&quot;&gt;&lt;b&gt;Account top-up&lt;/b&gt;&lt;/span&gt;&lt;/div&gt;&lt;div&gt;&lt;span style=&quot;font-size: 30px;&quot;&gt;&lt;b&gt;&lt;br&gt;&lt;/b&gt;&lt;/span&gt;&lt;/div&gt;&lt;div style=&quot;&quot;&gt;&lt;font style=&quot;font-size: 20px;&quot;&gt;-&amp;nbsp;&lt;/font&gt;&lt;span style=&quot;background-color: initial; font-size: 20px;&quot;&gt;Page where the Customer can top up their account with points.&lt;/span&gt;&lt;/div&gt;&lt;div&gt;&lt;span style=&quot;font-size: 20px;&quot;&gt;&lt;br&gt;&lt;/span&gt;&lt;/div&gt;&lt;div&gt;&lt;span style=&quot;font-size: 20px;&quot;&gt;- There should be 2/3 packages of points available for purchase (ideally with direct communication to a POS that allows online payment (e.g. Golfmanager)).&lt;/span&gt;&lt;/div&gt;&lt;div&gt;&lt;span style=&quot;font-size: 20px;&quot;&gt;&lt;br&gt;&lt;/span&gt;&lt;/div&gt;&lt;div&gt;&lt;span style=&quot;font-size: 20px;&quot;&gt;- Example packages:&lt;/span&gt;&lt;/div&gt;&lt;div&gt;&lt;span style=&quot;font-size: 20px;&quot;&gt;1. 400 points (50â¬)&lt;/span&gt;&lt;/div&gt;&lt;div&gt;&lt;span style=&quot;font-size: 20px;&quot;&gt;2. 1000 points (125â¬)&lt;/span&gt;&lt;/div&gt;&lt;div&gt;&lt;span style=&quot;font-size: 20px;&quot;&gt;3. 4000 points (400â¬)&lt;/span&gt;&lt;/div&gt;&lt;div style=&quot;&quot;&gt;&lt;br&gt;&lt;/div&gt;" style="rounded=1;whiteSpace=wrap;html=1;" vertex="1" parent="1">
          <mxGeometry x="2095" y="1510" width="320" height="720" as="geometry" />
        </mxCell>
        <mxCell id="VRJ6IOVxPH5nIhdkej40-53" value="" style="edgeStyle=orthogonalEdgeStyle;rounded=0;orthogonalLoop=1;jettySize=auto;html=1;" edge="1" parent="1" source="VRJ6IOVxPH5nIhdkej40-50" target="VRJ6IOVxPH5nIhdkej40-52">
          <mxGeometry relative="1" as="geometry" />
        </mxCell>
        <mxCell id="VRJ6IOVxPH5nIhdkej40-50" value="&lt;div&gt;&lt;span style=&quot;font-size: 30px;&quot;&gt;&lt;b&gt;Friends&lt;/b&gt;&lt;/span&gt;&lt;/div&gt;&lt;div&gt;&lt;span style=&quot;font-size: 30px;&quot;&gt;&lt;b&gt;&lt;br&gt;&lt;/b&gt;&lt;/span&gt;&lt;/div&gt;&lt;div style=&quot;&quot;&gt;&lt;font style=&quot;font-size: 20px;&quot;&gt;-&amp;nbsp;&lt;/font&gt;&lt;span style=&quot;background-color: initial; font-size: 20px;&quot;&gt;If possible, and with the aim of enhancing the community effect, it would be ideal if there was a page where I could invite âfriendsâ who are members of the Vilamoura Club to join my âgroupâ of friends.&lt;/span&gt;&lt;/div&gt;&lt;div&gt;&lt;span style=&quot;font-size: 20px;&quot;&gt;&lt;br&gt;&lt;/span&gt;&lt;/div&gt;&lt;div&gt;&lt;span style=&quot;font-size: 20px;&quot;&gt;- This âfriendshipâ request would only become active if the other member accepted the invitation.&amp;nbsp;&lt;/span&gt;&lt;/div&gt;&lt;div style=&quot;&quot;&gt;&lt;br&gt;&lt;/div&gt;" style="rounded=1;whiteSpace=wrap;html=1;" vertex="1" parent="1">
          <mxGeometry x="2485" y="1510" width="320" height="720" as="geometry" />
        </mxCell>
        <mxCell id="VRJ6IOVxPH5nIhdkej40-52" value="&lt;div&gt;&lt;span style=&quot;font-size: 30px;&quot;&gt;&lt;b&gt;Messages&lt;/b&gt;&lt;/span&gt;&lt;/div&gt;&lt;div&gt;&lt;span style=&quot;font-size: 30px;&quot;&gt;&lt;b&gt;&lt;br&gt;&lt;/b&gt;&lt;/span&gt;&lt;/div&gt;&lt;div style=&quot;&quot;&gt;&lt;font style=&quot;font-size: 20px;&quot;&gt;&lt;div&gt;Communication field that would allow you to communicate with:&lt;/div&gt;&lt;div&gt;1. concierge team;&lt;/div&gt;&lt;div&gt;2. Family associated with the account;&lt;/div&gt;&lt;div&gt;3. Friends&lt;/div&gt;&lt;/font&gt;&lt;/div&gt;&lt;div style=&quot;&quot;&gt;&lt;br&gt;&lt;/div&gt;" style="rounded=1;whiteSpace=wrap;html=1;" vertex="1" parent="1">
          <mxGeometry x="2875" y="1510" width="320" height="720" as="geometry" />
        </mxCell>
        <mxCell id="VRJ6IOVxPH5nIhdkej40-56" value="" style="endArrow=none;html=1;rounded=0;" edge="1" parent="1" source="VRJ6IOVxPH5nIhdkej40-54">
          <mxGeometry width="50" height="50" relative="1" as="geometry">
            <mxPoint x="70" y="100" as="sourcePoint" />
            <mxPoint x="3250" y="100" as="targetPoint" />
          </mxGeometry>
        </mxCell>
        <mxCell id="VRJ6IOVxPH5nIhdkej40-58" value="" style="endArrow=none;html=1;rounded=0;" edge="1" parent="1" target="VRJ6IOVxPH5nIhdkej40-54">
          <mxGeometry width="50" height="50" relative="1" as="geometry">
            <mxPoint x="70" y="100" as="sourcePoint" />
            <mxPoint x="3250" y="100" as="targetPoint" />
          </mxGeometry>
        </mxCell>
        <mxCell id="VRJ6IOVxPH5nIhdkej40-54" value="&lt;font style=&quot;font-size: 25px;&quot;&gt;Architecutural Design&lt;/font&gt;" style="shape=process;whiteSpace=wrap;html=1;backgroundOutline=1;fillColor=#0050ef;fontColor=#ffffff;strokeColor=#001DBC;" vertex="1" parent="1">
          <mxGeometry x="1510" y="20" width="340" height="160" as="geometry" />
        </mxCell>
      </root>
    </mxGraphModel>
  </diagram>
</mxfile>
